PathFileType	4	(X/Y/Z)	\\147.46.242.158\로컬 디스크 (e)\MOCAP Data\Iguana Capture\iguana\Project 2\Capture day 7\Session 2\Take01.trc
DataRate	CameraRate	NumFrames	NumMarkers	Units	OrigDataRate	OrigDataStartFrame	OrigNumFrames
120.0	120.0	5	23	mm	120.0	1	1930
Frame#	Time	ana:head1			ana:head2			ana:bone1			ana:bone2			ana:bone3			ana:tail1			ana:tail2			ana:tail3			ana:tail4			ana:Rforefoot1			ana:Rforefoot2			ana:Rforefoot3			ana:Lforefoot1			ana:Lforefoot2			ana:Lforefoot3			ana:RhindLeg1			ana:RhindLeg2			ana:RhindLeg3			ana:RhindLeg4			ana:LhindLeg1			ana:LhindLeg2			ana:LhindLeg3			ana:LhindLeg4			
		X1	Y1	Z1	X2	Y2	Z2	X3	Y3	Z3	X4	Y4	Z4	X5	Y5	Z5	X6	Y6	Z6	X7	Y7	Z7	X8	Y8	Z8	X9	Y9	Z9	X10	Y10	Z10	X11	Y11	Z11	X12	Y12	Z12	X13	Y13	Z13	X14	Y14	Z14	X15	Y15	Z15	X16	Y16	Z16	X17	Y17	Z17	X18	Y18	Z18	X19	Y19	Z19	X20	Y20	Z20	X21	Y21	Z21	X22	Y22	Z22	X23	Y23	Z23	

900	7.492	7.21204	-468.75500	51.73589	16.90460	-471.41306	53.49926	36.04896	-476.87552	48.39218	66.36089	-484.69067	45.06810	100.14240	-488.29968	37.37906	132.62090	-490.10913	29.47744	164.79875	-500.55701	15.22120	204.60023	-519.70459	7.73664	237.98404	-539.44867	5.81139	34.63360	-462.96872	35.73165	50.17694	-457.44431	24.18311	42.67270	-461.26392	10.12780	28.56978	-484.72473	31.45756	25.36622	-497.48239	32.75310	9.46870	-494.85367	25.94088	100.70544	-479.20850	32.58280	99.60380	-461.11572	35.48842	118.09391	-459.14203	22.82232	117.74960	-449.29526	19.70233	101.56983	-497.93863	30.54759	104.00243	-512.47858	19.73614	122.25673	-507.77936	8.27551	110.40366	-509.73386	3.92823	
901	7.500	5.68319	-468.18304	51.97600	15.16241	-471.46555	54.27524	36.85530	-475.32178	46.38346	64.64175	-484.73132	44.96726	97.86430	-488.84116	38.93587	130.95853	-488.76175	29.30160	163.30156	-499.38525	15.12585	203.24261	-518.26947	7.24462	236.35123	-538.63544	6.15574	34.03459	-462.68622	35.56375	49.70306	-457.49353	24.34303	42.26753	-460.79074	10.59666	26.16817	-483.89783	31.56094	21.62237	-496.10648	32.11110	5.95634	-492.57510	25.38472	98.50816	-479.70471	33.28362	94.53418	-461.58380	36.53009	111.30429	-457.42636	21.96482	108.33183	-447.20200	20.38857	100.27821	-497.62228	30.84092	103.15093	-512.85803	20.66000	121.99732	-507.62323	8.63507	110.31738	-509.65335	3.90058	
902	7.508	4.19222	-467.58707	52.12165	13.88180	-470.66776	54.09481	33.60524	-476.15112	48.08761	63.06778	-484.46066	44.88193	96.21983	-488.57104	38.79550	129.26060	-487.96518	29.61225	161.54131	-498.55649	15.97434	201.48586	-517.51440	7.81698	234.67517	-537.47205	5.96383	31.32792	-461.54376	35.93407	49.01932	-457.56345	25.05300	39.18726	-458.23926	13.28908	23.97637	-482.80847	31.54252	18.19490	-494.32275	31.04217	2.62869	-490.66028	24.44601	96.49287	-479.52188	33.64502	89.35103	-462.23132	35.81208	104.33111	-454.71185	22.41210	98.62401	-445.56567	20.08217	99.15755	-496.67651	29.91123	102.89323	-512.26318	20.75334	121.70586	-507.34201	9.19018	110.22686	-509.53009	4.04122	
903	7.517	2.61686	-467.25537	52.11297	12.67892	-469.36621	53.26020	28.22157	-474.96506	50.74301	61.34129	-484.44702	44.88358	94.49912	-488.40259	38.76619	127.55151	-486.67874	29.37147	160.14465	-496.80334	15.51886	199.99696	-515.89087	7.29836	233.09499	-536.38739	6.12031	32.96978	-462.83783	32.67994	47.56639	-457.76025	25.19321	38.88559	-458.69568	13.56914	21.94113	-481.85153	31.43608	14.92584	-492.82227	30.08974	-0.65747	-488.89145	23.16679	94.37281	-478.69086	32.72178	84.39365	-462.29816	35.02505	97.27251	-452.28278	21.34356	89.24844	-446.12216	20.55461	97.36227	-496.94202	30.99323	102.08459	-511.86990	21.17444	121.30892	-507.13727	10.02970	110.20374	-509.50027	4.06867	
904	7.525	1.03734	-466.55820	52.04217	10.98293	-469.53540	54.83392	25.81520	-474.52896	52.06145	59.15805	-484.71936	45.57206	93.10020	-487.46902	38.74211	125.88198	-485.84717	29.59447	158.36415	-496.30215	16.22211	198.21220	-514.96027	7.81254	231.05298	-535.91138	7.11035	30.01870	-461.94742	35.29243	47.34955	-457.30371	23.99518	38.82980	-458.80292	13.30594	19.82140	-481.00851	30.87517	12.00255	-490.95822	28.55446	-3.75470	-486.93729	21.75404	91.94334	-478.74646	33.96433	79.97163	-462.60904	34.58168	89.87322	-450.55322	19.96411	81.11822	-445.80731	18.68709	95.90649	-496.65939	30.84555	101.25984	-511.42801	21.60526	120.77779	-507.08554	10.54164	110.06997	-509.55908	4.22747	
